<?xml version="1.0" standalone="no"?>
<!DOCTYPE svg PUBLIC "-//W3C//DTD SVG 20010904//EN"
 "http://www.w3.org/TR/2001/REC-SVG-20010904/DTD/svg10.dtd">
<svg version="1.0" xmlns="http://www.w3.org/2000/svg"
 width="348.000000pt" height="253.000000pt" viewBox="0 0 348.000000 253.000000"
 preserveAspectRatio="xMidYMid meet">

<g transform="translate(0.000000,253.000000) scale(0.100000,-0.100000)"
fill="#000000" stroke="none">
<path d="M312 2522 c-18 -12 -13 -1053 6 -1060 9 -3 12 104 12 512 l0 516
1230 0 1230 0 2 -512 c2 -398 6 -512 16 -516 9 -3 12 108 12 532 l0 536 -1247
0 c-687 0 -1254 -4 -1261 -8z"/>
<path d="M1654 2193 c-15 -21 -44 -57 -65 -80 -21 -22 -49 -64 -64 -92 -14
-28 -29 -51 -34 -51 -5 0 -19 15 -30 33 -11 18 -29 41 -39 51 -18 15 -21 16
-35 1 -9 -9 -24 -29 -34 -45 -9 -17 -26 -33 -35 -36 -12 -3 -48 -63 -92 -153
-41 -80 -88 -170 -105 -199 -33 -57 -29 -68 10 -24 26 27 102 155 135 225 10
20 21 37 26 37 12 0 11 -5 -28 -81 -38 -76 -38 -97 -1 -57 13 14 28 27 34 29
5 2 19 36 31 75 34 111 76 150 115 106 24 -26 21 -55 -12 -120 -31 -61 -55
-87 -140 -147 -65 -47 -52 -58 20 -19 91 50 141 125 252 377 16 36 37 50 37
24 0 -7 -20 -55 -45 -106 -47 -97 -65 -176 -21 -91 13 25 39 71 59 103 19 32
41 80 47 107 12 48 30 77 30 46 0 -8 11 -28 25 -44 18 -22 21 -32 13 -40 -9
-9 -2 -12 29 -12 72 0 77 8 30 47 -41 35 -63 70 -51 82 3 3 14 -4 24 -16 10
-13 62 -48 117 -79 54 -31 110 -65 125 -75 31 -22 48 -24 48 -6 0 7 -34 35
-76 62 -42 27 -101 77 -132 113 -55 62 -96 92 -125 92 -8 0 -27 -17 -43 -37z"/>
<path d="M3063 1399 c-39 -11 -73 -53 -73 -89 0 -45 34 -76 108 -100 113 -37
137 -65 92 -110 -32 -32 -91 -27 -129 10 -16 17 -33 39 -36 50 -6 19 -25 26
-37 15 -7 -8 12 -108 22 -119 6 -5 15 -5 23 2 9 8 24 7 56 -4 82 -28 171 21
171 94 0 51 -30 77 -122 108 -89 29 -109 51 -83 90 32 49 117 22 145 -46 8
-19 20 -30 32 -30 16 0 18 5 12 38 -15 81 -19 87 -50 88 -16 0 -45 3 -64 7
-19 3 -49 2 -67 -4z"/>
<path d="M30 1380 c0 -13 7 -20 20 -20 19 0 20 -7 20 -135 0 -128 -1 -135 -20
-135 -13 0 -20 -7 -20 -20 0 -19 5 -21 67 -18 44 2 68 7 71 16 2 7 -5 16 -17
19 -18 5 -21 13 -21 59 0 54 0 54 31 54 25 0 33 -6 42 -30 19 -49 32 -29 32
50 0 79 -13 99 -32 50 -9 -24 -17 -30 -42 -30 l-31 0 0 60 0 60 53 0 c58 0 78
-10 98 -52 10 -19 18 -25 28 -19 11 7 11 17 -4 60 l-17 51 -129 0 c-122 0
-129 -1 -129 -20z"/>
<path d="M340 1381 c0 -10 9 -21 20 -24 19 -5 20 -14 20 -136 0 -124 -1 -131
-20 -131 -13 0 -20 -7 -20 -20 0 -20 5 -20 142 -18 l141 3 19 54 c13 40 15 58
7 65 -8 8 -14 5 -23 -9 -6 -10 -23 -32 -38 -47 -24 -25 -33 -28 -92 -28 l-66
0 0 61 0 60 37 -3 c30 -2 38 -8 43 -28 3 -14 12 -25 20 -25 12 0 15 16 15 75
0 59 -3 75 -15 75 -8 0 -17 -11 -20 -25 -5 -20 -13 -26 -43 -28 l-37 -3 0 55
0 56 65 0 c57 0 69 -3 90 -25 14 -13 25 -29 25 -35 0 -5 7 -10 16 -10 13 0 15
7 10 35 l-7 35 51 0 50 0 0 -135 c0 -128 -1 -135 -20 -135 -13 0 -20 -7 -20
-20 0 -18 7 -20 65 -20 57 0 65 2 65 19 0 10 -9 21 -20 24 -17 4 -20 14 -20
61 0 82 23 76 100 -23 l62 -80 109 0 c102 -1 109 1 109 19 0 13 -7 20 -20 20
-19 0 -20 7 -20 135 0 128 1 135 20 135 13 0 20 7 20 20 0 19 -5 21 -67 18
-44 -2 -68 -7 -71 -16 -2 -7 5 -16 17 -19 20 -5 21 -12 21 -138 0 -145 -1
-147 -58 -137 -19 4 -112 105 -112 123 0 4 13 9 30 12 42 9 70 41 70 81 0 72
-50 95 -207 96 -76 0 -93 -3 -93 -15 0 -10 -10 -15 -34 -15 -21 0 -36 6 -40
15 -4 12 -30 15 -141 15 -126 0 -135 -1 -135 -19z m580 -40 c30 -58 1 -91 -81
-91 l-59 0 0 55 0 55 65 0 c53 0 66 -3 75 -19z"/>
<path d="M1200 1380 c0 -13 7 -20 20 -20 19 0 20 -7 20 -135 0 -128 -1 -135
-20 -135 -13 0 -20 -7 -20 -20 0 -20 5 -20 142 -18 l141 3 19 54 c13 40 15 58
7 65 -8 8 -14 5 -23 -9 -6 -10 -23 -32 -38 -47 -24 -25 -33 -28 -92 -28 l-66
0 0 61 0 60 37 -3 c30 -2 38 -8 43 -28 3 -14 12 -25 20 -25 12 0 15 16 15 75
0 59 -3 75 -15 75 -8 0 -17 -11 -20 -25 -5 -20 -13 -26 -43 -28 l-37 -3 0 55
0 56 65 0 c57 0 69 -3 90 -25 14 -13 25 -29 25 -35 0 -5 7 -10 16 -10 18 0 16
28 -5 83 l-11 27 -135 0 c-128 0 -135 -1 -135 -20z"/>
<path d="M1540 1381 c0 -10 9 -21 20 -24 19 -5 20 -14 20 -120 0 -123 -4 -147
-26 -147 -8 0 -14 -9 -14 -20 0 -19 5 -21 57 -18 58 3 85 24 44 35 -20 5 -21
12 -21 121 0 63 2 113 5 111 2 -3 40 -63 83 -134 43 -72 86 -131 95 -133 15
-3 17 12 17 148 0 143 1 152 20 157 11 3 20 14 20 25 0 17 -6 19 -57 16 -58
-3 -85 -24 -44 -35 19 -5 21 -12 21 -96 0 -50 -4 -87 -8 -81 -5 5 -37 55 -71
112 l-63 102 -49 0 c-41 0 -49 -3 -49 -19z"/>
<path d="M1900 1380 c0 -13 7 -20 20 -20 19 0 20 -7 20 -135 0 -128 -1 -135
-20 -135 -13 0 -20 -7 -20 -20 0 -18 7 -20 65 -20 58 0 65 2 65 20 0 13 -7 20
-20 20 -18 0 -20 7 -20 60 l0 60 80 0 80 0 0 -59 c0 -51 -3 -59 -21 -64 -12
-3 -19 -12 -17 -19 4 -10 36 -14 126 -15 115 -2 122 -1 122 17 0 12 -7 20 -16
20 -11 0 -14 6 -8 23 21 68 20 67 78 67 l55 0 12 -40 c11 -36 10 -42 -6 -54
-30 -22 -8 -36 56 -36 52 0 59 2 59 20 0 11 -6 20 -14 20 -8 0 -25 30 -42 73
-81 215 -89 232 -110 235 -23 3 -24 0 -110 -230 -29 -78 -43 -92 -84 -81 -19
5 -20 14 -20 138 0 126 1 133 21 138 12 3 19 12 17 19 -3 9 -25 13 -68 13 -43
0 -65 -4 -68 -13 -2 -7 5 -16 17 -19 18 -5 21 -13 21 -59 l0 -54 -80 0 -80 0
0 51 c0 42 3 52 20 56 11 3 20 14 20 24 0 17 -8 19 -65 19 -58 0 -65 -2 -65
-20z m549 -147 c1 -9 -13 -13 -38 -13 l-40 0 13 33 c7 17 16 41 21 52 6 18 9
15 25 -20 10 -22 19 -46 19 -52z"/>
<path d="M2605 1390 c-8 -13 3 -30 20 -30 10 0 14 -28 16 -119 4 -117 5 -120
34 -151 42 -44 96 -56 152 -35 70 27 83 57 83 193 0 105 1 112 20 112 13 0 20
7 20 20 0 19 -5 21 -57 18 -58 -3 -85 -24 -44 -35 20 -5 21 -12 21 -115 0
-102 -1 -110 -25 -133 -35 -36 -96 -35 -124 1 -18 23 -21 41 -21 134 0 101 1
108 21 113 12 3 19 12 17 19 -6 16 -123 24 -133 8z"/>
<path d="M1370 976 c-10 -13 -10 -19 0 -32 12 -14 15 -14 29 0 14 15 14 17 0
32 -14 14 -17 14 -29 0z"/>
<path d="M1425 970 c-4 -7 -3 -16 3 -22 14 -14 45 -2 40 15 -6 16 -34 21 -43
7z"/>
<path d="M1170 815 c0 -96 3 -115 15 -115 11 0 15 12 15 50 0 42 3 50 19 50
38 0 81 22 87 45 13 53 -25 85 -102 85 l-34 0 0 -115z m105 50 c0 -16 -8 -21
-37 -23 -35 -3 -38 -1 -38 23 0 24 3 26 38 23 29 -2 37 -7 37 -23z"/>
<path d="M1347 923 c-4 -3 -7 -43 -7 -89 0 -100 16 -128 74 -128 60 0 71 20
71 126 0 64 -4 92 -12 95 -10 4 -13 -15 -13 -72 0 -87 -11 -115 -43 -115 -39
0 -47 19 -47 107 0 76 -5 94 -23 76z"/>
<path d="M1530 814 c0 -88 3 -115 13 -112 6 3 13 25 15 51 l3 47 40 -50 c22
-27 46 -50 54 -50 21 0 19 7 -15 50 -33 42 -38 60 -15 60 8 0 22 11 31 25 32
49 -12 95 -92 95 l-34 0 0 -116z m100 51 c0 -22 -4 -25 -35 -25 -31 0 -35 3
-35 25 0 22 4 25 35 25 31 0 35 -3 35 -25z"/>
<path d="M1730 918 c-53 -20 -52 -48 5 -104 27 -28 42 -50 39 -59 -8 -19 -38
-19 -54 0 -15 19 -40 20 -40 2 0 -33 61 -62 93 -45 52 27 49 64 -9 116 -25 23
-42 46 -39 52 10 15 45 12 51 -5 5 -12 9 -13 20 -4 28 23 -26 62 -66 47z"/>
<path d="M1825 920 c-9 -15 4 -30 25 -30 17 0 20 -9 22 -92 2 -62 7 -93 16
-96 9 -3 12 20 12 92 0 96 0 96 25 96 18 0 25 5 25 20 0 18 -7 20 -59 20 -33
0 -63 -4 -66 -10z"/>
<path d="M1965 918 c-3 -8 -4 -59 -3 -114 l3 -99 55 0 c42 0 55 3 55 15 0 10
-12 16 -37 18 l-37 3 -3 91 c-2 62 -7 93 -15 96 -7 2 -15 -3 -18 -10z"/>
<path d="M300 373 c0 -258 3 -352 12 -361 9 -9 303 -12 1260 -12 l1248 0 0
355 c0 309 -2 355 -15 355 -13 0 -15 -44 -15 -335 l0 -335 -1230 0 -1230 0 -2
337 c-2 258 -6 337 -15 341 -10 3 -13 -71 -13 -345z"/>
</g>
</svg>
